
<svg version="1.0" xmlns="http://www.w3.org/2000/svg"
 width="512.000000pt" height="512.000000pt" viewBox="0 0 512.000000 512.000000"
 preserveAspectRatio="xMidYMid meet">

<g transform="translate(0.000000,512.000000) scale(0.100000,-0.100000)"
fill="#000000" stroke="none">
<path d="M2445 4656 c-62 -20 -1596 -912 -1627 -946 -38 -41 -38 -89 1 -127
28 -28 1524 -898 1609 -935 56 -25 187 -27 248 -5 60 22 1584 904 1616 936 37
35 44 78 20 117 -15 24 -194 132 -803 484 -431 250 -806 462 -834 472 -59 21
-172 22 -230 4z m228 -531 c104 -27 181 -77 213 -137 18 -35 18 -89 -1 -161
-25 -96 -21 -131 20 -164 l35 -29 -162 -91 -163 -92 -40 22 c-50 28 -85 79
-85 126 0 20 7 64 16 96 25 96 22 144 -10 171 -63 55 -163 53 -284 -7 -74 -36
-177 -129 -222 -199 -18 -28 -35 -50 -39 -50 -3 0 -57 29 -118 64 l-113 63 63
60 c159 152 401 283 602 326 92 20 216 21 288 2z m519 -626 c71 -40 126 -75
121 -79 -4 -4 -78 -47 -163 -95 l-155 -87 -70 38 c-38 21 -99 55 -134 75 l-63
37 43 25 c146 85 275 156 283 157 4 0 67 -32 138 -71z"/>
<path d="M696 3357 c-13 -13 -27 -40 -31 -58 -3 -19 -5 -408 -3 -864 l3 -830
33 -67 c21 -42 50 -82 80 -109 52 -46 1518 -896 1571 -911 23 -7 42 -6 63 3
61 25 59 -14 56 921 l-3 853 -28 58 c-55 111 -66 118 -876 585 -818 471 -814
470 -865 419z m553 -638 c218 -61 446 -218 551 -380 56 -86 81 -161 87 -255
10 -143 -22 -194 -163 -260 -51 -23 -96 -48 -100 -56 -5 -7 -11 -31 -14 -54
l-5 -41 -140 82 -140 82 -3 54 c-5 97 19 122 198 204 59 27 84 71 76 129 -21
135 -189 246 -378 250 l-68 1 0 133 c0 95 3 132 12 132 6 0 46 -9 87 -21z
m268 -1121 l93 -53 0 -153 c0 -84 -3 -151 -7 -149 -5 2 -70 39 -145 83 l-138
78 0 154 0 154 53 -31 c28 -17 94 -55 144 -83z"/>
<path d="M4300 3362 c-19 -10 -366 -209 -770 -442 -455 -263 -749 -439 -772
-462 -21 -21 -52 -66 -70 -100 l-33 -63 -3 -840 c-2 -585 0 -851 8 -877 13
-47 56 -72 103 -63 18 4 93 42 167 85 1106 636 1380 797 1418 834 24 22 57 70
75 106 l32 65 3 845 c2 624 -1 852 -9 873 -24 57 -84 73 -149 39z m-375 -726
c37 -25 58 -73 63 -151 8 -126 -33 -234 -171 -450 -81 -128 -97 -162 -106
-229 l-6 -48 -135 -79 c-74 -43 -139 -79 -144 -79 -5 0 -6 31 -4 69 6 85 42
164 148 330 93 147 123 213 124 274 1 37 -4 52 -18 63 -55 39 -138 -7 -298
-167 l-128 -128 0 131 0 130 48 43 c186 167 352 273 479 305 51 12 117 6 148
-14z m-215 -1159 l0 -153 -112 -64 c-62 -35 -128 -72 -145 -83 l-33 -19 0 154
0 153 143 82 c78 46 143 83 145 83 1 0 2 -69 2 -153z"/>
</g>
</svg>
